<svg xmlns="http://www.w3.org/2000/svg" viewBox="0 0 800 300">
  <defs>
    <linearGradient id="bg" x1="0" y1="0" x2="1" y2="1">
      <stop offset="0" stop-color="#065f46"/>
      <stop offset=".55" stop-color="#059669"/>
      <stop offset="1" stop-color="#65a30d"/>
    </linearGradient>
    <radialGradient id="glow" cx=".8" cy=".15" r=".6">
      <stop offset="0" stop-color="#a7f3d0" stop-opacity=".5"/>
      <stop offset="1" stop-color="#a7f3d0" stop-opacity="0"/>
    </radialGradient>
  </defs>
  <rect width="800" height="300" fill="url(#bg)"/>
  <rect width="800" height="300" fill="url(#glow)"/>
  <g fill="none" stroke="#fff" stroke-opacity=".12" stroke-width="2">
    <path d="M0 240 Q200 200 400 240 T800 240"/>
    <path d="M0 275 Q200 235 400 275 T800 275"/>
  </g>
  <g fill="#fff" fill-opacity=".16">
    <circle cx="740" cy="250" r="4"/><circle cx="700" cy="265" r="3"/>
    <circle cx="760" cy="220" r="3"/><circle cx="670" cy="245" r="2.5"/>
  </g>
  <g transform="translate(590 75)" fill="none" stroke="#fff" stroke-opacity=".35" stroke-width="7" stroke-linecap="round" stroke-linejoin="round">
    <path d="M25 95 C25 55 65 55 65 85 C65 115 105 115 105 75 C105 45 132 45 132 72"/>
    <circle cx="25" cy="95" r="5" fill="#fff" fill-opacity=".2" stroke="none"/>
    <circle cx="132" cy="72" r="5" fill="#fff" fill-opacity=".2" stroke="none"/>
  </g>
</svg>
